Coordinates
version=1
nRows=26
nColumns=22
inDegrees=yes

Units are S.I. units (second, meters, Newtons, ...)
If the header above contains a line with 'inDegrees', this indicates whether rotational values are in degrees (yes) or radians (no).

endheader
time	pelvis_tilt	pelvis_list	pelvis_rotation	pelvis_tx	pelvis_ty	pelvis_tz	hip_flexion_r	hip_adduction_r	hip_rotation_r	knee_angle_r	ankle_angle_r	subtalar_angle_r	hip_flexion_l	hip_adduction_l	hip_rotation_l	knee_angle_l	ankle_angle_l	subtalar_angle_l	lumbar_extension	lumbar_bending	lumbar_rotation
      2.28000000	     -5.91311884	     -5.01711404	    -17.96680325	      0.45525965	      0.89101378	      0.27239968	     42.91566312	      5.57383219	    -12.40147894	    -57.28190748	     21.71022255	     -8.15716953	     31.29973295	     -5.68885023	      2.13706566	    -89.03365650	     12.02286916	     -3.29486188	     -9.63470104	      8.79220009	     -1.62067957
      2.29000000	     -5.99026657	     -5.29439462	    -17.92779697	      0.47087348	      0.89057027	      0.27695492	     42.08051322	      5.72984407	    -12.66455471	    -57.90419572	     23.02321082	     -7.98241612	     34.14534580	     -5.97655550	      2.75488755	    -89.14214542	     13.42934777	     -3.46594198	     -9.85530001	      8.94950908	     -0.78237790
      2.30000000	     -6.05155890	     -5.48942958	    -17.97345879	      0.48640768	      0.89079898	      0.28157322	     41.14280686	      5.88837106	    -12.81432818	    -58.32728670	     24.19485148	     -7.78850831	     36.82159216	     -6.24950791	      3.17032241	    -88.69057087	     14.65374107	     -3.58857618	    -10.03429649	      8.97686717	      0.15044650
      2.31000000	     -6.09506316	     -5.60897050	    -18.12075573	      0.50189061	      0.89173273	      0.28628628	     40.09643574	      6.08023317	    -12.79941174	    -58.53916215	     25.20387465	     -7.58770637	     39.27704479	     -6.53490400	      3.37520016	    -87.68383732	     15.71695706	     -3.71732570	    -10.17791579	      8.88554978	      1.17377144
      2.32000000	     -6.12399177	     -5.65857889	    -18.38347697	      0.51731326	      0.89332068	      0.29110529	     38.96439530	      6.31668158	    -12.59644795	    -58.57005700	     26.05272701	     -7.39972798	     41.48511894	     -6.86242025	      3.36449461	    -86.14921670	     16.62586593	     -3.87595810	    -10.29327029	      8.69125717	      2.26203437
      2.33000000	     -6.15096509	     -5.63757540	    -18.75927778	      0.53271068	      0.89551186	      0.29598873	     37.76283579	      6.58032313	    -12.21330279	    -58.42761400	     26.75896828	     -7.18256525	     43.43657704	     -7.24367746	      3.13845697	    -84.11111244	     17.35623691	     -4.06624109	    -10.36361693	      8.41302856	      3.38797743
      2.34000000	     -6.16027562	     -5.54672068	    -19.23366130	      0.54812600	      0.89827988	      0.30090560	     36.48564390	      6.84932663	    -11.64609933	    -58.13347942	     27.33550493	     -6.90461871	     45.09028344	     -7.66663103	      2.71361278	    -81.58783191	     17.87627914	     -4.26109780	    -10.40209791	      8.05603818	      4.51529243
      2.35000000	     -6.11744073	     -5.39240167	    -19.76133953	      0.56362239	      0.90160838	      0.30578213	     35.09671800	      7.07106961	    -10.94234940	    -57.70066426	     27.85237396	     -6.49956188	     46.39759995	     -8.09210894	      2.12363102	    -78.60376851	     18.14730250	     -4.40892726	    -10.44078462	      7.62291007	      5.59802603
      2.36000000	     -6.05993341	     -5.20455806	    -20.34467711	      0.57923149	      0.90537875	      0.31063397	     33.62561676	      7.28982561	    -10.09172416	    -57.11957844	     28.24963986	     -6.13120899	     47.38341807	     -8.55044465	      1.40054534	    -75.19785125	     18.11822262	     -4.31277579	    -10.44404509	      7.17418089	      6.60512586
      2.37000000	     -5.98026323	     -4.99035319	    -20.95672462	      0.59501718	      0.90950275	      0.31543278	     32.06781834	      7.46806399	     -9.15155786	    -56.40902933	     28.52590209	     -5.79507667	     48.03796094	     -9.01602783	      0.56805137	    -71.40871508	     17.72323250	     -3.96357503	    -10.41092976	      6.71570765	      7.55254414
      2.38000000	     -5.82918811	     -4.77619838	    -21.56159998	      0.61102497	      0.91398993	      0.32011702	     30.36049497	      7.57602997	     -8.17612355	    -55.56141173	     28.75694928	     -5.35795722	     48.30829024	     -9.44456735	     -0.32674871	    -67.27901917	     16.84772645	     -3.20725265	    -10.40617309	      6.25822245	      8.44734731
      2.39000000	     -5.67312266	     -4.58395358	    -22.16876201	      0.62728888	      0.91861413	      0.32474624	     28.57461404	      7.64976127	     -7.19252370	    -54.59741530	     28.88157511	     -4.94033889	     48.27597939	     -9.87554118	     -1.26699901	    -62.87904632	     15.47820883	     -2.06917670	    -10.35112019	      5.85825113	      9.26453682
      2.40000000	     -5.51856994	     -4.43733450	    -22.77941690	      0.64380136	      0.92326844	      0.32932715	     26.72001797	      7.69191520	     -6.25525726	    -53.53434923	     28.91476296	     -4.50141136	     47.96717678	    -10.31205516	     -2.22537590	    -58.29030488	     13.57016779	     -0.49180200	    -10.25155026	      5.54073032	     10.03862687
      2.41000000	     -5.41302414	     -4.34756236	    -23.41374138	      0.66051173	      0.92776078	      0.33391110	     24.86654001	      7.72914212	     -5.38206475	    -52.41485242	     28.82720209	     -3.99012529	     47.46525546	    -10.77765133	     -3.17346465	    -53.61451310	     11.15704544	      1.61548844	    -10.06353124	      5.33173944	     10.79687599
      2.42000000	     -5.29368591	     -4.31628557	    -24.04148413	      0.67746172	      0.93209389	      0.33839258	     22.97095751	      7.70934977	     -4.61773965	    -51.27947968	     28.68322693	     -3.43166503	     46.73225267	    -11.20298618	     -4.05968073	    -48.93282782	      8.32439322	      4.05523684	     -9.86251136	      5.21378318	     11.52813377
      2.43000000	     -5.24553134	     -4.32330223	    -24.69525025	      0.69459658	      0.93599817	      0.34283100	     21.16903941	      7.67945654	     -3.90478017	    -50.20413758	     28.43090059	     -2.73658793	     45.91671790	    -11.62132784	     -4.86554954	    -44.38201816	      5.23423643	      6.94687365	     -9.54532788	      5.20107852	     12.23655788
      2.44000000	     -5.22269984	     -4.34809898	    -25.35580491	      0.71191986	      0.93944216	      0.34713259	     19.45548438	      7.60399097	     -3.21987490	    -49.24814462	     28.13335932	     -1.92551122	     45.01640452	    -11.97141709	     -5.52634743	    -40.06811183	      2.10834660	     10.03715566	     -9.16327570	      5.25683274	     12.92683497
      2.45000000	     -5.24654525	     -4.36476209	    -26.01759830	      0.72937858	      0.94228613	      0.35126975	     17.90727219	      7.48274921	     -2.53707849	    -48.48627840	     27.76461582	     -0.98285272	     44.11521394	    -12.24117921	     -5.99190282	    -36.11999165	     -0.82890794	     13.19568035	     -8.69107265	      5.36365975	     13.59569275
      2.46000000	     -5.29706395	     -4.37008798	    -26.67177249	      0.74689892	      0.94449582	      0.35527369	     16.53117123	      7.32716456	     -1.82569918	    -47.96121041	     27.36327373	      0.04867491	     43.24776339	    -12.44651837	     -6.27554943	    -32.67162238	     -3.37911275	     16.16647137	     -8.16129033	      5.49937699	     14.21044783
      2.47000000	     -5.39010460	     -4.33659660	    -27.31797435	      0.76437741	      0.94597129	      0.35915633	     15.39721353	      7.13009073	     -1.08249365	    -47.74085865	     26.88713564	      1.13721504	     42.49222934	    -12.59546483	     -6.40825327	    -29.84737147	     -5.36969051	     18.73302613	     -7.55894386	      5.63364186	     14.78134717
      2.48000000	     -5.50665011	     -4.26688477	    -27.94754305	      0.78171646	      0.94670026	      0.36295509	     14.50886612	      6.90103585	     -0.31262854	    -47.86215948	     26.35933362	      2.20938427	     41.88324959	    -12.71265423	     -6.48702487	    -27.76110048	     -6.73358038	     20.63203871	     -6.92106155	      5.74798858	     15.29637253
      2.49000000	     -5.62710656	     -4.15594100	    -28.54719991	      0.79885497	      0.94667903	      0.36667368	     13.86597472	      6.63589632	      0.47403634	    -48.35230451	     25.79960517	      3.17921353	     41.44490765	    -12.79794908	     -6.60686317	    -26.48679214	     -7.42872649	     21.63779032	     -6.27872538	      5.81851069	     15.73772265
      2.50000000	     -5.73956944	     -4.00541668	    -29.10280278	      0.81571620	      0.94587956	      0.37029779	     13.47756394	      6.33438378	      1.24414070	    -49.24426461	     25.21945509	      3.97698771	     41.20113145	    -12.84568202	     -6.80977162	    -26.05567138	     -7.45578275	     21.59690322	     -5.65847653	      5.83306358	     16.09621450
      2.51000000	     -5.82082987	     -3.82414540	    -29.59066007	      0.83226503	      0.94434680	      0.37378984	     13.32074961	      5.99222389	      1.95511147	    -50.53653739	     24.63162799	      4.50702076	     41.12901170	    -12.83296794	     -7.07732127	    -26.41061678	     -6.85748687	     20.48565109	     -5.09792497	      5.78315068	     16.35856650
      2.52000000	     -5.84379527	     -3.61049713	    -29.97661619	      0.84846062	      0.94210753	      0.37709399	     13.37699693	      5.59855860	      2.58597052	    -52.23121346	     24.03118459	      4.73681730	     41.20799099	    -12.71740785	     -7.35577540	    -27.46828776	     -5.66332734	     18.40760632	     -4.63171709	      5.64632707	     16.48575673
      2.53000000	     -5.79183934	     -3.36959450	    -30.24185309	      0.86426205	      0.93924771	      0.38016100	     13.61941306	      5.14331069	      3.09781066	    -54.29344740	     23.45146587	      4.61128575	     41.39520032	    -12.46954906	     -7.56704510	    -29.07388873	     -3.97836408	     15.61382245	     -4.28890690	      5.41377951	     16.47733951
